<svg xmlns="http://www.w3.org/2000/svg" xmlns:xlink="http://www.w3.org/1999/xlink" width="1500" zoomAndPan="magnify" viewBox="0 0 1125 374.999991" height="500" preserveAspectRatio="xMidYMid meet" version="1.0"><defs><clipPath id="2db7a5f98e"><path d="M 8.683594 32.503906 L 70.230469 32.503906 L 70.230469 94.570312 L 8.683594 94.570312 Z M 8.683594 32.503906 " clip-rule="nonzero"/></clipPath><clipPath id="1a23757a2c"><path d="M 0.683594 0.503906 L 62.230469 0.503906 L 62.230469 62.570312 L 0.683594 62.570312 Z M 0.683594 0.503906 " clip-rule="nonzero"/></clipPath><clipPath id="657a3bf86a"><rect x="0" width="63" y="0" height="63"/></clipPath><clipPath id="5b8ff5385c"><path d="M 8.683594 32.507812 L 70.183594 32.507812 L 70.183594 94.5625 L 8.683594 94.5625 Z M 8.683594 32.507812 " clip-rule="nonzero"/></clipPath><clipPath id="cc23962835"><path d="M 8.683594 94.570312 L 70.230469 94.570312 L 70.230469 156.632812 L 8.683594 156.632812 Z M 8.683594 94.570312 " clip-rule="nonzero"/></clipPath><clipPath id="634802bdba"><path d="M 0.683594 0.570312 L 62.230469 0.570312 L 62.230469 62.632812 L 0.683594 62.632812 Z M 0.683594 0.570312 " clip-rule="nonzero"/></clipPath><clipPath id="25246582de"><rect x="0" width="63" y="0" height="63"/></clipPath><clipPath id="0d5343deb5"><path d="M 8.683594 94.574219 L 70.183594 94.574219 L 70.183594 156.628906 L 8.683594 156.628906 Z M 8.683594 94.574219 " clip-rule="nonzero"/></clipPath><clipPath id="7aaf521a2f"><path d="M 8.683594 156.632812 L 70.230469 156.632812 L 70.230469 218.695312 L 8.683594 218.695312 Z M 8.683594 156.632812 " clip-rule="nonzero"/></clipPath><clipPath id="489499bb6a"><path d="M 0.683594 0.632812 L 62.230469 0.632812 L 62.230469 62.695312 L 0.683594 62.695312 Z M 0.683594 0.632812 " clip-rule="nonzero"/></clipPath><clipPath id="de6c70350a"><rect x="0" width="63" y="0" height="63"/></clipPath><clipPath id="4aaf396513"><path d="M 8.683594 156.636719 L 70.183594 156.636719 L 70.183594 218.691406 L 8.683594 218.691406 Z M 8.683594 156.636719 " clip-rule="nonzero"/></clipPath><clipPath id="753a606081"><path d="M 377.878906 32.503906 L 439.421875 32.503906 L 439.421875 94.570312 L 377.878906 94.570312 Z M 377.878906 32.503906 " clip-rule="nonzero"/></clipPath><clipPath id="1d33b69ffe"><path d="M 0.878906 0.503906 L 62.421875 0.503906 L 62.421875 62.570312 L 0.878906 62.570312 Z M 0.878906 0.503906 " clip-rule="nonzero"/></clipPath><clipPath id="bc81b667e7"><rect x="0" width="63" y="0" height="63"/></clipPath><clipPath id="8a423702a2"><path d="M 377.878906 32.507812 L 439.378906 32.507812 L 439.378906 94.5625 L 377.878906 94.5625 Z M 377.878906 32.507812 " clip-rule="nonzero"/></clipPath><clipPath id="6541e87439"><path d="M 193.507812 218.695312 L 255.050781 218.695312 L 255.050781 280.761719 L 193.507812 280.761719 Z M 193.507812 218.695312 " clip-rule="nonzero"/></clipPath><clipPath id="d34b9f8069"><path d="M 0.507812 0.695312 L 62.050781 0.695312 L 62.050781 62.761719 L 0.507812 62.761719 Z M 0.507812 0.695312 " clip-rule="nonzero"/></clipPath><clipPath id="adec3c583c"><rect x="0" width="63" y="0" height="63"/></clipPath><clipPath id="8c4ae9bb0c"><path d="M 193.507812 218.699219 L 255.007812 218.699219 L 255.007812 280.753906 L 193.507812 280.753906 Z M 193.507812 218.699219 " clip-rule="nonzero"/></clipPath><clipPath id="800973c5b4"><path d="M 254.789062 156.632812 L 316.332031 156.632812 L 316.332031 218.695312 L 254.789062 218.695312 Z M 254.789062 156.632812 " clip-rule="nonzero"/></clipPath><clipPath id="c07c695a8b"><path d="M 0.789062 0.632812 L 62.332031 0.632812 L 62.332031 62.695312 L 0.789062 62.695312 Z M 0.789062 0.632812 " clip-rule="nonzero"/></clipPath><clipPath id="0326ead310"><rect x="0" width="63" y="0" height="63"/></clipPath><clipPath id="11306407f0"><path d="M 254.789062 156.636719 L 316.289062 156.636719 L 316.289062 218.691406 L 254.789062 218.691406 Z M 254.789062 156.636719 " clip-rule="nonzero"/></clipPath><clipPath id="02c87f6f13"><path d="M 316.332031 94.570312 L 377.878906 94.570312 L 377.878906 156.632812 L 316.332031 156.632812 Z M 316.332031 94.570312 " clip-rule="nonzero"/></clipPath><clipPath id="f889176b54"><path d="M 0.332031 0.570312 L 61.878906 0.570312 L 61.878906 62.632812 L 0.332031 62.632812 Z M 0.332031 0.570312 " clip-rule="nonzero"/></clipPath><clipPath id="05ee7f8e8d"><rect x="0" width="62" y="0" height="63"/></clipPath><clipPath id="1b78400ad0"><path d="M 316.332031 94.574219 L 377.832031 94.574219 L 377.832031 156.628906 L 316.332031 156.628906 Z M 316.332031 94.574219 " clip-rule="nonzero"/></clipPath><clipPath id="50e8a4873a"><path d="M 131.964844 280.761719 L 193.507812 280.761719 L 193.507812 342.824219 L 131.964844 342.824219 Z M 131.964844 280.761719 " clip-rule="nonzero"/></clipPath><clipPath id="ea84f470d6"><path d="M 0.964844 0.761719 L 62.507812 0.761719 L 62.507812 62.824219 L 0.964844 62.824219 Z M 0.964844 0.761719 " clip-rule="nonzero"/></clipPath><clipPath id="f0ecdd395b"><rect x="0" width="63" y="0" height="63"/></clipPath><clipPath id="bf72bcf6ca"><path d="M 131.964844 280.765625 L 193.464844 280.765625 L 193.464844 342.820312 L 131.964844 342.820312 Z M 131.964844 280.765625 " clip-rule="nonzero"/></clipPath><clipPath id="5d3dcec315"><path d="M 562.464844 32.175781 L 624.007812 32.175781 L 624.007812 94.238281 L 562.464844 94.238281 Z M 562.464844 32.175781 " clip-rule="nonzero"/></clipPath><clipPath id="3c412301c5"><path d="M 0.464844 0.175781 L 62.007812 0.175781 L 62.007812 62.238281 L 0.464844 62.238281 Z M 0.464844 0.175781 " clip-rule="nonzero"/></clipPath><clipPath id="a4400b7a44"><rect x="0" width="63" y="0" height="63"/></clipPath><clipPath id="7deec17982"><path d="M 562.464844 32.179688 L 623.964844 32.179688 L 623.964844 94.234375 L 562.464844 94.234375 Z M 562.464844 32.179688 " clip-rule="nonzero"/></clipPath><clipPath id="99f84a896d"><path d="M 500.921875 94.238281 L 562.464844 94.238281 L 562.464844 156.304688 L 500.921875 156.304688 Z M 500.921875 94.238281 " clip-rule="nonzero"/></clipPath><clipPath id="b5a7cf004f"><path d="M 0.921875 0.238281 L 62.464844 0.238281 L 62.464844 62.304688 L 0.921875 62.304688 Z M 0.921875 0.238281 " clip-rule="nonzero"/></clipPath><clipPath id="4aaa880e64"><rect x="0" width="63" y="0" height="63"/></clipPath><clipPath id="4094493b37"><path d="M 500.921875 94.242188 L 562.421875 94.242188 L 562.421875 156.296875 L 500.921875 156.296875 Z M 500.921875 94.242188 " clip-rule="nonzero"/></clipPath><clipPath id="7b81d794d4"><path d="M 500.921875 156.304688 L 562.464844 156.304688 L 562.464844 218.367188 L 500.921875 218.367188 Z M 500.921875 156.304688 " clip-rule="nonzero"/></clipPath><clipPath id="30b603d7cf"><path d="M 0.921875 0.304688 L 62.464844 0.304688 L 62.464844 62.367188 L 0.921875 62.367188 Z M 0.921875 0.304688 " clip-rule="nonzero"/></clipPath><clipPath id="2daaad84e5"><rect x="0" width="63" y="0" height="63"/></clipPath><clipPath id="904f30aef5"><path d="M 500.921875 156.308594 L 562.421875 156.308594 L 562.421875 218.363281 L 500.921875 218.363281 Z M 500.921875 156.308594 " clip-rule="nonzero"/></clipPath><clipPath id="83a2e24fae"><path d="M 808.597656 94.238281 L 870.140625 94.238281 L 870.140625 156.304688 L 808.597656 156.304688 Z M 808.597656 94.238281 " clip-rule="nonzero"/></clipPath><clipPath id="74a9072d13"><path d="M 0.597656 0.238281 L 62.140625 0.238281 L 62.140625 62.304688 L 0.597656 62.304688 Z M 0.597656 0.238281 " clip-rule="nonzero"/></clipPath><clipPath id="37c68c6144"><rect x="0" width="63" y="0" height="63"/></clipPath><clipPath id="bc649ec915"><path d="M 808.597656 94.242188 L 870.097656 94.242188 L 870.097656 156.296875 L 808.597656 156.296875 Z M 808.597656 94.242188 " clip-rule="nonzero"/></clipPath><clipPath id="64438cdf86"><path d="M 808.597656 156.304688 L 870.140625 156.304688 L 870.140625 218.367188 L 808.597656 218.367188 Z M 808.597656 156.304688 " clip-rule="nonzero"/></clipPath><clipPath id="a28052b333"><path d="M 0.597656 0.304688 L 62.140625 0.304688 L 62.140625 62.367188 L 0.597656 62.367188 Z M 0.597656 0.304688 " clip-rule="nonzero"/></clipPath><clipPath id="76bdd0a086"><rect x="0" width="63" y="0" height="63"/></clipPath><clipPath id="c27ed890d7"><path d="M 808.597656 156.308594 L 870.097656 156.308594 L 870.097656 218.363281 L 808.597656 218.363281 Z M 808.597656 156.308594 " clip-rule="nonzero"/></clipPath><clipPath id="aeda7924d7"><path d="M 931.683594 32.175781 L 993.226562 32.175781 L 993.226562 94.238281 L 931.683594 94.238281 Z M 931.683594 32.175781 " clip-rule="nonzero"/></clipPath><clipPath id="50b8bf727f"><path d="M 0.683594 0.175781 L 62.226562 0.175781 L 62.226562 62.238281 L 0.683594 62.238281 Z M 0.683594 0.175781 " clip-rule="nonzero"/></clipPath><clipPath id="9340ab2006"><rect x="0" width="63" y="0" height="63"/></clipPath><clipPath id="c457dcf8b4"><path d="M 931.683594 32.179688 L 993.183594 32.179688 L 993.183594 94.234375 L 931.683594 94.234375 Z M 931.683594 32.179688 " clip-rule="nonzero"/></clipPath><clipPath id="126e2fff65"><path d="M 562.464844 156.304688 L 624.007812 156.304688 L 624.007812 218.367188 L 562.464844 218.367188 Z M 562.464844 156.304688 " clip-rule="nonzero"/></clipPath><clipPath id="7c93445e74"><path d="M 0.464844 0.304688 L 62.007812 0.304688 L 62.007812 62.367188 L 0.464844 62.367188 Z M 0.464844 0.304688 " clip-rule="nonzero"/></clipPath><clipPath id="3f71cfd821"><rect x="0" width="63" y="0" height="63"/></clipPath><clipPath id="18c576f81c"><path d="M 562.464844 156.308594 L 623.964844 156.308594 L 623.964844 218.363281 L 562.464844 218.363281 Z M 562.464844 156.308594 " clip-rule="nonzero"/></clipPath><clipPath id="c77e7548a5"><path d="M 500.921875 218.367188 L 562.464844 218.367188 L 562.464844 280.429688 L 500.921875 280.429688 Z M 500.921875 218.367188 " clip-rule="nonzero"/></clipPath><clipPath id="2fa32bcf93"><path d="M 0.921875 0.367188 L 62.464844 0.367188 L 62.464844 62.429688 L 0.921875 62.429688 Z M 0.921875 0.367188 " clip-rule="nonzero"/></clipPath><clipPath id="58a0acb71f"><rect x="0" width="63" y="0" height="63"/></clipPath><clipPath id="7e56b8fdf5"><path d="M 500.921875 218.371094 L 562.421875 218.371094 L 562.421875 280.425781 L 500.921875 280.425781 Z M 500.921875 218.371094 " clip-rule="nonzero"/></clipPath><clipPath id="d72a30ffc8"><path d="M 562.464844 280.429688 L 624.007812 280.429688 L 624.007812 342.496094 L 562.464844 342.496094 Z M 562.464844 280.429688 " clip-rule="nonzero"/></clipPath><clipPath id="ad8d6f405c"><path d="M 0.464844 0.429688 L 62.007812 0.429688 L 62.007812 62.496094 L 0.464844 62.496094 Z M 0.464844 0.429688 " clip-rule="nonzero"/></clipPath><clipPath id="d29a9375fc"><rect x="0" width="63" y="0" height="63"/></clipPath><clipPath id="069f995c93"><path d="M 562.464844 280.433594 L 623.964844 280.433594 L 623.964844 342.488281 L 562.464844 342.488281 Z M 562.464844 280.433594 " clip-rule="nonzero"/></clipPath><clipPath id="94132b0d68"><path d="M 500.921875 32.175781 L 562.464844 32.175781 L 562.464844 94.238281 L 500.921875 94.238281 Z M 500.921875 32.175781 " clip-rule="nonzero"/></clipPath><clipPath id="af49c9349c"><path d="M 0.921875 0.175781 L 62.464844 0.175781 L 62.464844 62.238281 L 0.921875 62.238281 Z M 0.921875 0.175781 " clip-rule="nonzero"/></clipPath><clipPath id="0acf66e29d"><rect x="0" width="63" y="0" height="63"/></clipPath><clipPath id="17e68398a0"><path d="M 500.921875 32.179688 L 562.421875 32.179688 L 562.421875 94.234375 L 500.921875 94.234375 Z M 500.921875 32.179688 " clip-rule="nonzero"/></clipPath><clipPath id="5e4b8242e9"><path d="M 500.921875 280.429688 L 562.464844 280.429688 L 562.464844 342.496094 L 500.921875 342.496094 Z M 500.921875 280.429688 " clip-rule="nonzero"/></clipPath><clipPath id="d9273fc1d4"><path d="M 0.921875 0.429688 L 62.464844 0.429688 L 62.464844 62.496094 L 0.921875 62.496094 Z M 0.921875 0.429688 " clip-rule="nonzero"/></clipPath><clipPath id="e0dea10e78"><rect x="0" width="63" y="0" height="63"/></clipPath><clipPath id="a47a1c2919"><path d="M 500.921875 280.433594 L 562.421875 280.433594 L 562.421875 342.488281 L 500.921875 342.488281 Z M 500.921875 280.433594 " clip-rule="nonzero"/></clipPath><clipPath id="57eaa30182"><path d="M 624.007812 32.175781 L 685.554688 32.175781 L 685.554688 94.238281 L 624.007812 94.238281 Z M 624.007812 32.175781 " clip-rule="nonzero"/></clipPath><clipPath id="ed0978d7c8"><path d="M 0.0078125 0.175781 L 61.554688 0.175781 L 61.554688 62.238281 L 0.0078125 62.238281 Z M 0.0078125 0.175781 " clip-rule="nonzero"/></clipPath><clipPath id="3eb5efdce5"><rect x="0" width="62" y="0" height="63"/></clipPath><clipPath id="cf9f7548f3"><path d="M 624.007812 32.179688 L 685.507812 32.179688 L 685.507812 94.234375 L 624.007812 94.234375 Z M 624.007812 32.179688 " clip-rule="nonzero"/></clipPath><clipPath id="1a0b37f14a"><path d="M 624.007812 156.304688 L 685.554688 156.304688 L 685.554688 218.367188 L 624.007812 218.367188 Z M 624.007812 156.304688 " clip-rule="nonzero"/></clipPath><clipPath id="de590b2bb7"><path d="M 0.0078125 0.304688 L 61.554688 0.304688 L 61.554688 62.367188 L 0.0078125 62.367188 Z M 0.0078125 0.304688 " clip-rule="nonzero"/></clipPath><clipPath id="abb938f76d"><rect x="0" width="62" y="0" height="63"/></clipPath><clipPath id="5f99c058e0"><path d="M 624.007812 156.308594 L 685.507812 156.308594 L 685.507812 218.363281 L 624.007812 218.363281 Z M 624.007812 156.308594 " clip-rule="nonzero"/></clipPath><clipPath id="a2faf831f5"><path d="M 624.007812 280.429688 L 685.554688 280.429688 L 685.554688 342.496094 L 624.007812 342.496094 Z M 624.007812 280.429688 " clip-rule="nonzero"/></clipPath><clipPath id="894b1273e6"><path d="M 0.0078125 0.429688 L 61.554688 0.429688 L 61.554688 62.496094 L 0.0078125 62.496094 Z M 0.0078125 0.429688 " clip-rule="nonzero"/></clipPath><clipPath id="dae0a56a2f"><rect x="0" width="62" y="0" height="63"/></clipPath><clipPath id="bb4d3ebef2"><path d="M 624.007812 280.433594 L 685.507812 280.433594 L 685.507812 342.488281 L 624.007812 342.488281 Z M 624.007812 280.433594 " clip-rule="nonzero"/></clipPath><clipPath id="f1548384a7"><path d="M 8.683594 218.695312 L 70.230469 218.695312 L 70.230469 280.761719 L 8.683594 280.761719 Z M 8.683594 218.695312 " clip-rule="nonzero"/></clipPath><clipPath id="d9da34f61e"><path d="M 0.683594 0.695312 L 62.230469 0.695312 L 62.230469 62.761719 L 0.683594 62.761719 Z M 0.683594 0.695312 " clip-rule="nonzero"/></clipPath><clipPath id="531c91bf6d"><rect x="0" width="63" y="0" height="63"/></clipPath><clipPath id="a4569223ef"><path d="M 8.683594 218.699219 L 70.183594 218.699219 L 70.183594 280.753906 L 8.683594 280.753906 Z M 8.683594 218.699219 " clip-rule="nonzero"/></clipPath><clipPath id="96cf05b95e"><path d="M 8.683594 280.761719 L 70.230469 280.761719 L 70.230469 342.824219 L 8.683594 342.824219 Z M 8.683594 280.761719 " clip-rule="nonzero"/></clipPath><clipPath id="579eaa1ad3"><path d="M 0.683594 0.761719 L 62.230469 0.761719 L 62.230469 62.824219 L 0.683594 62.824219 Z M 0.683594 0.761719 " clip-rule="nonzero"/></clipPath><clipPath id="0049c3e65b"><rect x="0" width="63" y="0" height="63"/></clipPath><clipPath id="7789980347"><path d="M 8.683594 280.765625 L 70.183594 280.765625 L 70.183594 342.820312 L 8.683594 342.820312 Z M 8.683594 280.765625 " clip-rule="nonzero"/></clipPath><clipPath id="d9ee264b05"><path d="M 316.332031 218.695312 L 377.878906 218.695312 L 377.878906 280.761719 L 316.332031 280.761719 Z M 316.332031 218.695312 " clip-rule="nonzero"/></clipPath><clipPath id="b32dd054d5"><path d="M 0.332031 0.695312 L 61.878906 0.695312 L 61.878906 62.761719 L 0.332031 62.761719 Z M 0.332031 0.695312 " clip-rule="nonzero"/></clipPath><clipPath id="683332a9e1"><rect x="0" width="62" y="0" height="63"/></clipPath><clipPath id="61c83790c2"><path d="M 316.332031 218.699219 L 377.832031 218.699219 L 377.832031 280.753906 L 316.332031 280.753906 Z M 316.332031 218.699219 " clip-rule="nonzero"/></clipPath><clipPath id="bd6da119ee"><path d="M 377.878906 280.761719 L 439.421875 280.761719 L 439.421875 342.824219 L 377.878906 342.824219 Z M 377.878906 280.761719 " clip-rule="nonzero"/></clipPath><clipPath id="c970c241f3"><path d="M 0.878906 0.761719 L 62.421875 0.761719 L 62.421875 62.824219 L 0.878906 62.824219 Z M 0.878906 0.761719 " clip-rule="nonzero"/></clipPath><clipPath id="559d2bfd55"><rect x="0" width="63" y="0" height="63"/></clipPath><clipPath id="45a3566121"><path d="M 377.878906 280.765625 L 439.378906 280.765625 L 439.378906 342.820312 L 377.878906 342.820312 Z M 377.878906 280.765625 " clip-rule="nonzero"/></clipPath><clipPath id="7db7bd5b3b"><path d="M 131.964844 32.503906 L 193.507812 32.503906 L 193.507812 94.570312 L 131.964844 94.570312 Z M 131.964844 32.503906 " clip-rule="nonzero"/></clipPath><clipPath id="5d822a73aa"><path d="M 0.964844 0.503906 L 62.507812 0.503906 L 62.507812 62.570312 L 0.964844 62.570312 Z M 0.964844 0.503906 " clip-rule="nonzero"/></clipPath><clipPath id="1e1d8d0c4d"><rect x="0" width="63" y="0" height="63"/></clipPath><clipPath id="b55c2b593e"><path d="M 131.964844 32.507812 L 193.464844 32.507812 L 193.464844 94.5625 L 131.964844 94.5625 Z M 131.964844 32.507812 " clip-rule="nonzero"/></clipPath><clipPath id="93e3d1fd27"><path d="M 193.507812 94.570312 L 255.050781 94.570312 L 255.050781 156.632812 L 193.507812 156.632812 Z M 193.507812 94.570312 " clip-rule="nonzero"/></clipPath><clipPath id="a6c589272d"><path d="M 0.507812 0.570312 L 62.050781 0.570312 L 62.050781 62.632812 L 0.507812 62.632812 Z M 0.507812 0.570312 " clip-rule="nonzero"/></clipPath><clipPath id="379be7d554"><rect x="0" width="63" y="0" height="63"/></clipPath><clipPath id="bcff8c221d"><path d="M 193.507812 94.574219 L 255.007812 94.574219 L 255.007812 156.628906 L 193.507812 156.628906 Z M 193.507812 94.574219 " clip-rule="nonzero"/></clipPath><clipPath id="45b3c16dac"><path d="M 870.140625 32.175781 L 931.683594 32.175781 L 931.683594 94.238281 L 870.140625 94.238281 Z M 870.140625 32.175781 " clip-rule="nonzero"/></clipPath><clipPath id="1e0313804e"><path d="M 0.140625 0.175781 L 61.683594 0.175781 L 61.683594 62.238281 L 0.140625 62.238281 Z M 0.140625 0.175781 " clip-rule="nonzero"/></clipPath><clipPath id="7f2f655a16"><rect x="0" width="62" y="0" height="63"/></clipPath><clipPath id="1e79cbd88a"><path d="M 870.140625 32.179688 L 931.640625 32.179688 L 931.640625 94.234375 L 870.140625 94.234375 Z M 870.140625 32.179688 " clip-rule="nonzero"/></clipPath><clipPath id="597474400c"><path d="M 993.226562 32.175781 L 1054.769531 32.175781 L 1054.769531 94.238281 L 993.226562 94.238281 Z M 993.226562 32.175781 " clip-rule="nonzero"/></clipPath><clipPath id="9886249e9d"><path d="M 0.226562 0.175781 L 61.769531 0.175781 L 61.769531 62.238281 L 0.226562 62.238281 Z M 0.226562 0.175781 " clip-rule="nonzero"/></clipPath><clipPath id="8e9f975cbb"><rect x="0" width="62" y="0" height="63"/></clipPath><clipPath id="267f7d240f"><path d="M 993.226562 32.179688 L 1054.726562 32.179688 L 1054.726562 94.234375 L 993.226562 94.234375 Z M 993.226562 32.179688 " clip-rule="nonzero"/></clipPath><clipPath id="f8b5cb8e49"><path d="M 808.597656 218.367188 L 870.140625 218.367188 L 870.140625 280.429688 L 808.597656 280.429688 Z M 808.597656 218.367188 " clip-rule="nonzero"/></clipPath><clipPath id="96ce712b73"><path d="M 0.597656 0.367188 L 62.140625 0.367188 L 62.140625 62.429688 L 0.597656 62.429688 Z M 0.597656 0.367188 " clip-rule="nonzero"/></clipPath><clipPath id="c905813431"><rect x="0" width="63" y="0" height="63"/></clipPath><clipPath id="534cac0a50"><path d="M 808.597656 218.371094 L 870.097656 218.371094 L 870.097656 280.425781 L 808.597656 280.425781 Z M 808.597656 218.371094 " clip-rule="nonzero"/></clipPath><clipPath id="3b5954017f"><path d="M 870.140625 280.101562 L 931.683594 280.101562 L 931.683594 342.164062 L 870.140625 342.164062 Z M 870.140625 280.101562 " clip-rule="nonzero"/></clipPath><clipPath id="815bdf5e2c"><path d="M 0.140625 0.101562 L 61.683594 0.101562 L 61.683594 62.164062 L 0.140625 62.164062 Z M 0.140625 0.101562 " clip-rule="nonzero"/></clipPath><clipPath id="7c74561872"><rect x="0" width="62" y="0" height="63"/></clipPath><clipPath id="424f338c5c"><path d="M 870.140625 280.105469 L 931.640625 280.105469 L 931.640625 342.160156 L 870.140625 342.160156 Z M 870.140625 280.105469 " clip-rule="nonzero"/></clipPath><clipPath id="f2d65963f4"><path d="M 931.683594 280.101562 L 993.226562 280.101562 L 993.226562 342.164062 L 931.683594 342.164062 Z M 931.683594 280.101562 " clip-rule="nonzero"/></clipPath><clipPath id="95821bfb56"><path d="M 0.683594 0.101562 L 62.226562 0.101562 L 62.226562 62.164062 L 0.683594 62.164062 Z M 0.683594 0.101562 " clip-rule="nonzero"/></clipPath><clipPath id="f5e0c70ced"><rect x="0" width="63" y="0" height="63"/></clipPath><clipPath id="50cb40c291"><path d="M 931.683594 280.105469 L 993.183594 280.105469 L 993.183594 342.160156 L 931.683594 342.160156 Z M 931.683594 280.105469 " clip-rule="nonzero"/></clipPath><clipPath id="a1bc1cdde7"><path d="M 993.226562 280.101562 L 1054.769531 280.101562 L 1054.769531 342.164062 L 993.226562 342.164062 Z M 993.226562 280.101562 " clip-rule="nonzero"/></clipPath><clipPath id="9bb15620a6"><path d="M 0.226562 0.101562 L 61.769531 0.101562 L 61.769531 62.164062 L 0.226562 62.164062 Z M 0.226562 0.101562 " clip-rule="nonzero"/></clipPath><clipPath id="0de4deac38"><rect x="0" width="62" y="0" height="63"/></clipPath><clipPath id="20c3bef160"><path d="M 993.226562 280.105469 L 1054.726562 280.105469 L 1054.726562 342.160156 L 993.226562 342.160156 Z M 993.226562 280.105469 " clip-rule="nonzero"/></clipPath><clipPath id="f1b4eeeba8"><path d="M 1054.769531 94.238281 L 1116.316406 94.238281 L 1116.316406 156.304688 L 1054.769531 156.304688 Z M 1054.769531 94.238281 " clip-rule="nonzero"/></clipPath><clipPath id="062d0d72e3"><path d="M 0.769531 0.238281 L 62.316406 0.238281 L 62.316406 62.304688 L 0.769531 62.304688 Z M 0.769531 0.238281 " clip-rule="nonzero"/></clipPath><clipPath id="9a7bf6a6a3"><rect x="0" width="63" y="0" height="63"/></clipPath><clipPath id="e089ab1dd9"><path d="M 1054.769531 94.242188 L 1116.269531 94.242188 L 1116.269531 156.296875 L 1054.769531 156.296875 Z M 1054.769531 94.242188 " clip-rule="nonzero"/></clipPath><clipPath id="b9b81439fb"><path d="M 1054.769531 156.304688 L 1116.316406 156.304688 L 1116.316406 218.367188 L 1054.769531 218.367188 Z M 1054.769531 156.304688 " clip-rule="nonzero"/></clipPath><clipPath id="1095079d4b"><path d="M 0.769531 0.304688 L 62.316406 0.304688 L 62.316406 62.367188 L 0.769531 62.367188 Z M 0.769531 0.304688 " clip-rule="nonzero"/></clipPath><clipPath id="fe0d685b04"><rect x="0" width="63" y="0" height="63"/></clipPath><clipPath id="5e55f69075"><path d="M 1054.769531 156.308594 L 1116.269531 156.308594 L 1116.269531 218.363281 L 1054.769531 218.363281 Z M 1054.769531 156.308594 " clip-rule="nonzero"/></clipPath><clipPath id="6846bc7673"><path d="M 1054.769531 218.367188 L 1116.316406 218.367188 L 1116.316406 280.429688 L 1054.769531 280.429688 Z M 1054.769531 218.367188 " clip-rule="nonzero"/></clipPath><clipPath id="7a136304dc"><path d="M 0.769531 0.367188 L 62.316406 0.367188 L 62.316406 62.429688 L 0.769531 62.429688 Z M 0.769531 0.367188 " clip-rule="nonzero"/></clipPath><clipPath id="cbda216332"><rect x="0" width="63" y="0" height="63"/></clipPath><clipPath id="861bd5cce0"><path d="M 1054.769531 218.371094 L 1116.269531 218.371094 L 1116.269531 280.425781 L 1054.769531 280.425781 Z M 1054.769531 218.371094 " clip-rule="nonzero"/></clipPath><clipPath id="bcff2659f9"><path d="M 685.550781 32.175781 L 747.097656 32.175781 L 747.097656 94.238281 L 685.550781 94.238281 Z M 685.550781 32.175781 " clip-rule="nonzero"/></clipPath><clipPath id="bebb0472b2"><path d="M 0.550781 0.175781 L 62.097656 0.175781 L 62.097656 62.238281 L 0.550781 62.238281 Z M 0.550781 0.175781 " clip-rule="nonzero"/></clipPath><clipPath id="c8a2e5abe2"><rect x="0" width="63" y="0" height="63"/></clipPath><clipPath id="ca041eb911"><path d="M 685.550781 32.179688 L 747.050781 32.179688 L 747.050781 94.234375 L 685.550781 94.234375 Z M 685.550781 32.179688 " clip-rule="nonzero"/></clipPath><clipPath id="bd8c540f8a"><path d="M 685.550781 156.304688 L 747.097656 156.304688 L 747.097656 218.367188 L 685.550781 218.367188 Z M 685.550781 156.304688 " clip-rule="nonzero"/></clipPath><clipPath id="bf52de6a6f"><path d="M 0.550781 0.304688 L 62.097656 0.304688 L 62.097656 62.367188 L 0.550781 62.367188 Z M 0.550781 0.304688 " clip-rule="nonzero"/></clipPath><clipPath id="8bbd38ac97"><rect x="0" width="63" y="0" height="63"/></clipPath><clipPath id="9cdf3bad8c"><path d="M 685.550781 156.308594 L 747.050781 156.308594 L 747.050781 218.363281 L 685.550781 218.363281 Z M 685.550781 156.308594 " clip-rule="nonzero"/></clipPath><clipPath id="cae9f8c5b5"><path d="M 685.550781 280.429688 L 747.097656 280.429688 L 747.097656 342.496094 L 685.550781 342.496094 Z M 685.550781 280.429688 " clip-rule="nonzero"/></clipPath><clipPath id="f208cc8512"><path d="M 0.550781 0.429688 L 62.097656 0.429688 L 62.097656 62.496094 L 0.550781 62.496094 Z M 0.550781 0.429688 " clip-rule="nonzero"/></clipPath><clipPath id="5ac22e7601"><rect x="0" width="63" y="0" height="63"/></clipPath><clipPath id="a35902c12c"><path d="M 685.550781 280.433594 L 747.050781 280.433594 L 747.050781 342.488281 L 685.550781 342.488281 Z M 685.550781 280.433594 " clip-rule="nonzero"/></clipPath></defs><g clip-path="url(#2db7a5f98e)"><g transform="matrix(1, 0, 0, 1, 8, 32)"><g clip-path="url(#657a3bf86a)"><g clip-path="url(#1a23757a2c)"><path fill="#fcfbfb" d="M 0.683594 0.503906 L 62.230469 0.503906 L 62.230469 62.53125 L 0.683594 62.53125 Z M 0.683594 0.503906 " fill-opacity="1" fill-rule="nonzero"/></g></g></g></g><g clip-path="url(#5b8ff5385c)"><path stroke-linecap="butt" transform="matrix(0.75, 0, 0, 0.75, 8.684779, 32.508338)" fill="none" stroke-linejoin="miter" d="M -0.00158088 -0.000700274 L 82.0453 -0.000700274 L 82.0453 82.738888 L -0.00158088 82.738888 Z M -0.00158088 -0.000700274 " stroke="#d9d9d9" stroke-width="2" stroke-opacity="1" stroke-miterlimit="4"/></g><g clip-path="url(#cc23962835)"><g transform="matrix(1, 0, 0, 1, 8, 94)"><g clip-path="url(#25246582de)"><g clip-path="url(#634802bdba)"><path fill="#fcfbfb" d="M 0.683594 0.570312 L 62.230469 0.570312 L 62.230469 62.59375 L 0.683594 62.59375 Z M 0.683594 0.570312 " fill-opacity="1" fill-rule="nonzero"/></g></g></g></g><g clip-path="url(#0d5343deb5)"><path stroke-linecap="butt" transform="matrix(0.75, 0, 0, 0.75, 8.684779, 94.57232)" fill="none" stroke-linejoin="miter" d="M -0.00158088 0.00253141 L 82.0453 0.00253141 L 82.0453 82.74212 L -0.00158088 82.74212 Z M -0.00158088 0.00253141 " stroke="#d9d9d9" stroke-width="2" stroke-opacity="1" stroke-miterlimit="4"/></g><g clip-path="url(#7aaf521a2f)"><g transform="matrix(1, 0, 0, 1, 8, 156)"><g clip-path="url(#de6c70350a)"><g clip-path="url(#489499bb6a)"><path fill="#fcfbfb" d="M 0.683594 0.632812 L 62.230469 0.632812 L 62.230469 62.65625 L 0.683594 62.65625 Z M 0.683594 0.632812 " fill-opacity="1" fill-rule="nonzero"/></g></g></g></g><g clip-path="url(#4aaf396513)"><path stroke-linecap="butt" transform="matrix(0.75, 0, 0, 0.75, 8.684779, 156.636304)" fill="none" stroke-linejoin="miter" d="M -0.00158088 0.000552848 L 82.0453 0.000552848 L 82.0453 82.740142 L -0.00158088 82.740142 Z M -0.00158088 0.000552848 " stroke="#d9d9d9" stroke-width="2" stroke-opacity="1" stroke-miterlimit="4"/></g><g clip-path="url(#753a606081)"><g transform="matrix(1, 0, 0, 1, 377, 32)"><g clip-path="url(#bc81b667e7)"><g clip-path="url(#1d33b69ffe)"><path fill="#fcfbfb" d="M 0.878906 0.503906 L 62.421875 0.503906 L 62.421875 62.53125 L 0.878906 62.53125 Z M 0.878906 0.503906 " fill-opacity="1" fill-rule="nonzero"/></g></g></g></g><g clip-path="url(#8a423702a2)"><path stroke-linecap="butt" transform="matrix(0.75, 0, 0, 0.75, 377.877733, 32.508338)" fill="none" stroke-linejoin="miter" d="M 0.00156475 -0.000700274 L 82.048445 -0.000700274 L 82.048445 82.738888 L 0.00156475 82.738888 Z M 0.00156475 -0.000700274 " stroke="#d9d9d9" stroke-width="2" stroke-opacity="1" stroke-miterlimit="4"/></g><g clip-path="url(#6541e87439)"><g transform="matrix(1, 0, 0, 1, 193, 218)"><g clip-path="url(#adec3c583c)"><g clip-path="url(#d34b9f8069)"><path fill="#fcfbfb" d="M 0.507812 0.695312 L 62.050781 0.695312 L 62.050781 62.722656 L 0.507812 62.722656 Z M 0.507812 0.695312 " fill-opacity="1" fill-rule="nonzero"/></g></g></g></g><g clip-path="url(#8c4ae9bb0c)"><path stroke-linecap="butt" transform="matrix(0.75, 0, 0, 0.75, 193.506826, 218.700278)" fill="none" stroke-linejoin="miter" d="M 0.00131481 -0.00141292 L 82.048195 -0.00141292 L 82.048195 82.738176 L 0.00131481 82.738176 Z M 0.00131481 -0.00141292 " stroke="#d9d9d9" stroke-width="2" stroke-opacity="1" stroke-miterlimit="4"/></g><g clip-path="url(#800973c5b4)"><g transform="matrix(1, 0, 0, 1, 254, 156)"><g clip-path="url(#0326ead310)"><g clip-path="url(#c07c695a8b)"><path fill="#fcfbfb" d="M 0.789062 0.632812 L 62.332031 0.632812 L 62.332031 62.65625 L 0.789062 62.65625 Z M 0.789062 0.632812 " fill-opacity="1" fill-rule="nonzero"/></g></g></g></g><g clip-path="url(#11306407f0)"><path stroke-linecap="butt" transform="matrix(0.75, 0, 0, 0.75, 254.790232, 156.636304)" fill="none" stroke-linejoin="miter" d="M -0.00155929 0.000552848 L 82.045321 0.000552848 L 82.045321 82.740142 L -0.00155929 82.740142 Z M -0.00155929 0.000552848 " stroke="#d9d9d9" stroke-width="2" stroke-opacity="1" stroke-miterlimit="4"/></g><g clip-path="url(#02c87f6f13)"><g transform="matrix(1, 0, 0, 1, 316, 94)"><g clip-path="url(#05ee7f8e8d)"><g clip-path="url(#f889176b54)"><path fill="#fcfbfb" d="M 0.332031 0.570312 L 61.878906 0.570312 L 61.878906 62.59375 L 0.332031 62.59375 Z M 0.332031 0.570312 " fill-opacity="1" fill-rule="nonzero"/></g></g></g></g><g clip-path="url(#1b78400ad0)"><path stroke-linecap="butt" transform="matrix(0.75, 0, 0, 0.75, 316.333968, 94.57232)" fill="none" stroke-linejoin="miter" d="M -0.00258224 0.00253141 L 82.044298 0.00253141 L 82.044298 82.74212 L -0.00258224 82.74212 Z M -0.00258224 0.00253141 " stroke="#d9d9d9" stroke-width="2" stroke-opacity="1" stroke-miterlimit="4"/></g><g clip-path="url(#50e8a4873a)"><g transform="matrix(1, 0, 0, 1, 131, 280)"><g clip-path="url(#f0ecdd395b)"><g clip-path="url(#ea84f470d6)"><path fill="#fcfbfb" d="M 0.964844 0.761719 L 62.507812 0.761719 L 62.507812 62.785156 L 0.964844 62.785156 Z M 0.964844 0.761719 " fill-opacity="1" fill-rule="nonzero"/></g></g></g></g><g clip-path="url(#bf72bcf6ca)"><path stroke-linecap="butt" transform="matrix(0.75, 0, 0, 0.75, 131.96309, 280.76427)" fill="none" stroke-linejoin="miter" d="M 0.00233775 0.00180725 L 82.049218 0.00180725 L 82.049218 82.741396 L 0.00233775 82.741396 Z M 0.00233775 0.00180725 " stroke="#d9d9d9" stroke-width="2" stroke-opacity="1" stroke-miterlimit="4"/></g><g clip-path="url(#5d3dcec315)"><g transform="matrix(1, 0, 0, 1, 562, 32)"><g clip-path="url(#a4400b7a44)"><g clip-path="url(#3c412301c5)"><path fill="#fcfbfb" d="M 0.464844 0.175781 L 62.007812 0.175781 L 62.007812 62.199219 L 0.464844 62.199219 Z M 0.464844 0.175781 " fill-opacity="1" fill-rule="nonzero"/></g></g></g></g><g clip-path="url(#7deec17982)"><path stroke-linecap="butt" transform="matrix(0.75, 0, 0, 0.75, 562.465225, 32.178909)" fill="none" stroke-linejoin="miter" d="M -0.000507753 0.0010381 L 82.046373 0.0010381 L 82.046373 82.740627 L -0.000507753 82.740627 Z M -0.000507753 0.0010381 " stroke="#d9d9d9" stroke-width="2" stroke-opacity="1" stroke-miterlimit="4"/></g><g clip-path="url(#99f84a896d)"><g transform="matrix(1, 0, 0, 1, 500, 94)"><g clip-path="url(#4aaa880e64)"><g clip-path="url(#b5a7cf004f)"><path fill="#fcfbfb" d="M 0.921875 0.238281 L 62.464844 0.238281 L 62.464844 62.265625 L 0.921875 62.265625 Z M 0.921875 0.238281 " fill-opacity="1" fill-rule="nonzero"/></g></g></g></g><g clip-path="url(#4094493b37)"><path stroke-linecap="butt" transform="matrix(0.75, 0, 0, 0.75, 500.921477, 94.242884)" fill="none" stroke-linejoin="miter" d="M 0.000531192 -0.000928949 L 82.047412 -0.000928949 L 82.047412 82.73866 L 0.000531192 82.73866 Z M 0.000531192 -0.000928949 " stroke="#d9d9d9" stroke-width="2" stroke-opacity="1" stroke-miterlimit="4"/></g><g clip-path="url(#7b81d794d4)"><g transform="matrix(1, 0, 0, 1, 500, 156)"><g clip-path="url(#2daaad84e5)"><g clip-path="url(#30b603d7cf)"><path fill="#fcfbfb" d="M 0.921875 0.304688 L 62.464844 0.304688 L 62.464844 62.328125 L 0.921875 62.328125 Z M 0.921875 0.304688 " fill-opacity="1" fill-rule="nonzero"/></g></g></g></g><g clip-path="url(#904f30aef5)"><path stroke-linecap="butt" transform="matrix(0.75, 0, 0, 0.75, 500.921477, 156.306875)" fill="none" stroke-linejoin="miter" d="M 0.000531192 0.00229122 L 82.047412 0.00229122 L 82.047412 82.74188 L 0.000531192 82.74188 Z M 0.000531192 0.00229122 " stroke="#d9d9d9" stroke-width="2" stroke-opacity="1" stroke-miterlimit="4"/></g><g clip-path="url(#83a2e24fae)"><g transform="matrix(1, 0, 0, 1, 808, 94)"><g clip-path="url(#37c68c6144)"><g clip-path="url(#74a9072d13)"><path fill="#fcfbfb" d="M 0.597656 0.238281 L 62.140625 0.238281 L 62.140625 62.265625 L 0.597656 62.265625 Z M 0.597656 0.238281 " fill-opacity="1" fill-rule="nonzero"/></g></g></g></g><g clip-path="url(#bc649ec915)"><path stroke-linecap="butt" transform="matrix(0.75, 0, 0, 0.75, 808.596464, 94.242884)" fill="none" stroke-linejoin="miter" d="M 0.00158913 -0.000928949 L 82.04847 -0.000928949 L 82.04847 82.73866 L 0.00158913 82.73866 Z M 0.00158913 -0.000928949 " stroke="#d9d9d9" stroke-width="2" stroke-opacity="1" stroke-miterlimit="4"/></g><g clip-path="url(#64438cdf86)"><g transform="matrix(1, 0, 0, 1, 808, 156)"><g clip-path="url(#76bdd0a086)"><g clip-path="url(#a28052b333)"><path fill="#fcfbfb" d="M 0.597656 0.304688 L 62.140625 0.304688 L 62.140625 62.328125 L 0.597656 62.328125 Z M 0.597656 0.304688 " fill-opacity="1" fill-rule="nonzero"/></g></g></g></g><g clip-path="url(#c27ed890d7)"><path stroke-linecap="butt" transform="matrix(0.75, 0, 0, 0.75, 808.596464, 156.306875)" fill="none" stroke-linejoin="miter" d="M 0.00158913 0.00229122 L 82.04847 0.00229122 L 82.04847 82.74188 L 0.00158913 82.74188 Z M 0.00158913 0.00229122 " stroke="#d9d9d9" stroke-width="2" stroke-opacity="1" stroke-miterlimit="4"/></g><g clip-path="url(#aeda7924d7)"><g transform="matrix(1, 0, 0, 1, 931, 32)"><g clip-path="url(#9340ab2006)"><g clip-path="url(#50b8bf727f)"><path fill="#fcfbfb" d="M 0.683594 0.175781 L 62.226562 0.175781 L 62.226562 62.199219 L 0.683594 62.199219 Z M 0.683594 0.175781 " fill-opacity="1" fill-rule="nonzero"/></g></g></g></g><g clip-path="url(#c457dcf8b4)"><path stroke-linecap="butt" transform="matrix(0.75, 0, 0, 0.75, 931.683984, 32.178909)" fill="none" stroke-linejoin="miter" d="M -0.000520759 0.0010381 L 82.04636 0.0010381 L 82.04636 82.740627 L -0.000520759 82.740627 Z M -0.000520759 0.0010381 " stroke="#d9d9d9" stroke-width="2" stroke-opacity="1" stroke-miterlimit="4"/></g><g clip-path="url(#126e2fff65)"><g transform="matrix(1, 0, 0, 1, 562, 156)"><g clip-path="url(#3f71cfd821)"><g clip-path="url(#7c93445e74)"><path fill="#fcfbfb" d="M 0.464844 0.304688 L 62.007812 0.304688 L 62.007812 62.328125 L 0.464844 62.328125 Z M 0.464844 0.304688 " fill-opacity="1" fill-rule="nonzero"/></g></g></g></g><g clip-path="url(#18c576f81c)"><path stroke-linecap="butt" transform="matrix(0.75, 0, 0, 0.75, 562.465225, 156.306875)" fill="none" stroke-linejoin="miter" d="M -0.000507753 0.00229122 L 82.046373 0.00229122 L 82.046373 82.74188 L -0.000507753 82.74188 Z M -0.000507753 0.00229122 " stroke="#d9d9d9" stroke-width="2" stroke-opacity="1" stroke-miterlimit="4"/></g><g clip-path="url(#c77e7548a5)"><g transform="matrix(1, 0, 0, 1, 500, 218)"><g clip-path="url(#58a0acb71f)"><g clip-path="url(#2fa32bcf93)"><path fill="#fcfbfb" d="M 0.921875 0.367188 L 62.464844 0.367188 L 62.464844 62.390625 L 0.921875 62.390625 Z M 0.921875 0.367188 " fill-opacity="1" fill-rule="nonzero"/></g></g></g></g><g clip-path="url(#7e56b8fdf5)"><path stroke-linecap="butt" transform="matrix(0.75, 0, 0, 0.75, 500.921477, 218.37085)" fill="none" stroke-linejoin="miter" d="M 0.000531192 0.000325453 L 82.047412 0.000325453 L 82.047412 82.739914 L 0.000531192 82.739914 Z M 0.000531192 0.000325453 " stroke="#d9d9d9" stroke-width="2" stroke-opacity="1" stroke-miterlimit="4"/></g><g clip-path="url(#d72a30ffc8)"><g transform="matrix(1, 0, 0, 1, 562, 280)"><g clip-path="url(#d29a9375fc)"><g clip-path="url(#ad8d6f405c)"><path fill="#fcfbfb" d="M 0.464844 0.429688 L 62.007812 0.429688 L 62.007812 62.457031 L 0.464844 62.457031 Z M 0.464844 0.429688 " fill-opacity="1" fill-rule="nonzero"/></g></g></g></g><g clip-path="url(#069f995c93)"><path stroke-linecap="butt" transform="matrix(0.75, 0, 0, 0.75, 562.465225, 280.434826)" fill="none" stroke-linejoin="miter" d="M -0.000507753 -0.00164351 L 82.046373 -0.00164351 L 82.046373 82.737945 L -0.000507753 82.737945 Z M -0.000507753 -0.00164351 " stroke="#d9d9d9" stroke-width="2" stroke-opacity="1" stroke-miterlimit="4"/></g><g clip-path="url(#94132b0d68)"><g transform="matrix(1, 0, 0, 1, 500, 32)"><g clip-path="url(#0acf66e29d)"><g clip-path="url(#af49c9349c)"><path fill="#fcfbfb" d="M 0.921875 0.175781 L 62.464844 0.175781 L 62.464844 62.199219 L 0.921875 62.199219 Z M 0.921875 0.175781 " fill-opacity="1" fill-rule="nonzero"/></g></g></g></g><g clip-path="url(#17e68398a0)"><path stroke-linecap="butt" transform="matrix(0.75, 0, 0, 0.75, 500.921477, 32.178909)" fill="none" stroke-linejoin="miter" d="M 0.000531192 0.0010381 L 82.047412 0.0010381 L 82.047412 82.740627 L 0.000531192 82.740627 Z M 0.000531192 0.0010381 " stroke="#d9d9d9" stroke-width="2" stroke-opacity="1" stroke-miterlimit="4"/></g><g clip-path="url(#5e4b8242e9)"><g transform="matrix(1, 0, 0, 1, 500, 280)"><g clip-path="url(#e0dea10e78)"><g clip-path="url(#d9273fc1d4)"><path fill="#fcfbfb" d="M 0.921875 0.429688 L 62.464844 0.429688 L 62.464844 62.457031 L 0.921875 62.457031 Z M 0.921875 0.429688 " fill-opacity="1" fill-rule="nonzero"/></g></g></g></g><g clip-path="url(#a47a1c2919)"><path stroke-linecap="butt" transform="matrix(0.75, 0, 0, 0.75, 500.921477, 280.434826)" fill="none" stroke-linejoin="miter" d="M 0.000531192 -0.00164351 L 82.047412 -0.00164351 L 82.047412 82.737945 L 0.000531192 82.737945 Z M 0.000531192 -0.00164351 " stroke="#d9d9d9" stroke-width="2" stroke-opacity="1" stroke-miterlimit="4"/></g><g clip-path="url(#57eaa30182)"><g transform="matrix(1, 0, 0, 1, 624, 32)"><g clip-path="url(#3eb5efdce5)"><g clip-path="url(#ed0978d7c8)"><path fill="#fcfbfb" d="M 0.0078125 0.175781 L 61.554688 0.175781 L 61.554688 62.199219 L 0.0078125 62.199219 Z M 0.0078125 0.175781 " fill-opacity="1" fill-rule="nonzero"/></g></g></g></g><g clip-path="url(#cf9f7548f3)"><path stroke-linecap="butt" transform="matrix(0.75, 0, 0, 0.75, 624.008997, 32.178909)" fill="none" stroke-linejoin="miter" d="M -0.0015787 0.0010381 L 82.045302 0.0010381 L 82.045302 82.740627 L -0.0015787 82.740627 Z M -0.0015787 0.0010381 " stroke="#d9d9d9" stroke-width="2" stroke-opacity="1" stroke-miterlimit="4"/></g><g clip-path="url(#1a0b37f14a)"><g transform="matrix(1, 0, 0, 1, 624, 156)"><g clip-path="url(#abb938f76d)"><g clip-path="url(#de590b2bb7)"><path fill="#fcfbfb" d="M 0.0078125 0.304688 L 61.554688 0.304688 L 61.554688 62.328125 L 0.0078125 62.328125 Z M 0.0078125 0.304688 " fill-opacity="1" fill-rule="nonzero"/></g></g></g></g><g clip-path="url(#5f99c058e0)"><path stroke-linecap="butt" transform="matrix(0.75, 0, 0, 0.75, 624.008997, 156.306875)" fill="none" stroke-linejoin="miter" d="M -0.0015787 0.00229122 L 82.045302 0.00229122 L 82.045302 82.74188 L -0.0015787 82.74188 Z M -0.0015787 0.00229122 " stroke="#d9d9d9" stroke-width="2" stroke-opacity="1" stroke-miterlimit="4"/></g><g clip-path="url(#a2faf831f5)"><g transform="matrix(1, 0, 0, 1, 624, 280)"><g clip-path="url(#dae0a56a2f)"><g clip-path="url(#894b1273e6)"><path fill="#fcfbfb" d="M 0.0078125 0.429688 L 61.554688 0.429688 L 61.554688 62.457031 L 0.0078125 62.457031 Z M 0.0078125 0.429688 " fill-opacity="1" fill-rule="nonzero"/></g></g></g></g><g clip-path="url(#bb4d3ebef2)"><path stroke-linecap="butt" transform="matrix(0.75, 0, 0, 0.75, 624.008997, 280.434826)" fill="none" stroke-linejoin="miter" d="M -0.0015787 -0.00164351 L 82.045302 -0.00164351 L 82.045302 82.737945 L -0.0015787 82.737945 Z M -0.0015787 -0.00164351 " stroke="#d9d9d9" stroke-width="2" stroke-opacity="1" stroke-miterlimit="4"/></g><g clip-path="url(#f1548384a7)"><g transform="matrix(1, 0, 0, 1, 8, 218)"><g clip-path="url(#531c91bf6d)"><g clip-path="url(#d9da34f61e)"><path fill="#fcfbfb" d="M 0.683594 0.695312 L 62.230469 0.695312 L 62.230469 62.722656 L 0.683594 62.722656 Z M 0.683594 0.695312 " fill-opacity="1" fill-rule="nonzero"/></g></g></g></g><g clip-path="url(#a4569223ef)"><path stroke-linecap="butt" transform="matrix(0.75, 0, 0, 0.75, 8.684779, 218.700278)" fill="none" stroke-linejoin="miter" d="M -0.00158088 -0.00141292 L 82.0453 -0.00141292 L 82.0453 82.738176 L -0.00158088 82.738176 Z M -0.00158088 -0.00141292 " stroke="#d9d9d9" stroke-width="2" stroke-opacity="1" stroke-miterlimit="4"/></g><g clip-path="url(#96cf05b95e)"><g transform="matrix(1, 0, 0, 1, 8, 280)"><g clip-path="url(#0049c3e65b)"><g clip-path="url(#579eaa1ad3)"><path fill="#fcfbfb" d="M 0.683594 0.761719 L 62.230469 0.761719 L 62.230469 62.785156 L 0.683594 62.785156 Z M 0.683594 0.761719 " fill-opacity="1" fill-rule="nonzero"/></g></g></g></g><g clip-path="url(#7789980347)"><path stroke-linecap="butt" transform="matrix(0.75, 0, 0, 0.75, 8.684779, 280.76427)" fill="none" stroke-linejoin="miter" d="M -0.00158088 0.00180725 L 82.0453 0.00180725 L 82.0453 82.741396 L -0.00158088 82.741396 Z M -0.00158088 0.00180725 " stroke="#d9d9d9" stroke-width="2" stroke-opacity="1" stroke-miterlimit="4"/></g><g clip-path="url(#d9ee264b05)"><g transform="matrix(1, 0, 0, 1, 316, 218)"><g clip-path="url(#683332a9e1)"><g clip-path="url(#b32dd054d5)"><path fill="#fcfbfb" d="M 0.332031 0.695312 L 61.878906 0.695312 L 61.878906 62.722656 L 0.332031 62.722656 Z M 0.332031 0.695312 " fill-opacity="1" fill-rule="nonzero"/></g></g></g></g><g clip-path="url(#61c83790c2)"><path stroke-linecap="butt" transform="matrix(0.75, 0, 0, 0.75, 316.333968, 218.700278)" fill="none" stroke-linejoin="miter" d="M -0.00258224 -0.00141292 L 82.044298 -0.00141292 L 82.044298 82.738176 L -0.00258224 82.738176 Z M -0.00258224 -0.00141292 " stroke="#d9d9d9" stroke-width="2" stroke-opacity="1" stroke-miterlimit="4"/></g><g clip-path="url(#bd6da119ee)"><g transform="matrix(1, 0, 0, 1, 377, 280)"><g clip-path="url(#559d2bfd55)"><g clip-path="url(#c970c241f3)"><path fill="#fcfbfb" d="M 0.878906 0.761719 L 62.421875 0.761719 L 62.421875 62.785156 L 0.878906 62.785156 Z M 0.878906 0.761719 " fill-opacity="1" fill-rule="nonzero"/></g></g></g></g><g clip-path="url(#45a3566121)"><path stroke-linecap="butt" transform="matrix(0.75, 0, 0, 0.75, 377.877733, 280.76427)" fill="none" stroke-linejoin="miter" d="M 0.00156475 0.00180725 L 82.048445 0.00180725 L 82.048445 82.741396 L 0.00156475 82.741396 Z M 0.00156475 0.00180725 " stroke="#d9d9d9" stroke-width="2" stroke-opacity="1" stroke-miterlimit="4"/></g><g clip-path="url(#7db7bd5b3b)"><g transform="matrix(1, 0, 0, 1, 131, 32)"><g clip-path="url(#1e1d8d0c4d)"><g clip-path="url(#5d822a73aa)"><path fill="#fcfbfb" d="M 0.964844 0.503906 L 62.507812 0.503906 L 62.507812 62.53125 L 0.964844 62.53125 Z M 0.964844 0.503906 " fill-opacity="1" fill-rule="nonzero"/></g></g></g></g><g clip-path="url(#b55c2b593e)"><path stroke-linecap="butt" transform="matrix(0.75, 0, 0, 0.75, 131.96309, 32.508338)" fill="none" stroke-linejoin="miter" d="M 0.00233775 -0.000700274 L 82.049218 -0.000700274 L 82.049218 82.738888 L 0.00233775 82.738888 Z M 0.00233775 -0.000700274 " stroke="#d9d9d9" stroke-width="2" stroke-opacity="1" stroke-miterlimit="4"/></g><g clip-path="url(#93e3d1fd27)"><g transform="matrix(1, 0, 0, 1, 193, 94)"><g clip-path="url(#379be7d554)"><g clip-path="url(#a6c589272d)"><path fill="#fcfbfb" d="M 0.507812 0.570312 L 62.050781 0.570312 L 62.050781 62.59375 L 0.507812 62.59375 Z M 0.507812 0.570312 " fill-opacity="1" fill-rule="nonzero"/></g></g></g></g><g clip-path="url(#bcff8c221d)"><path stroke-linecap="butt" transform="matrix(0.75, 0, 0, 0.75, 193.506826, 94.57232)" fill="none" stroke-linejoin="miter" d="M 0.00131481 0.00253141 L 82.048195 0.00253141 L 82.048195 82.74212 L 0.00131481 82.74212 Z M 0.00131481 0.00253141 " stroke="#d9d9d9" stroke-width="2" stroke-opacity="1" stroke-miterlimit="4"/></g><g clip-path="url(#45b3c16dac)"><g transform="matrix(1, 0, 0, 1, 870, 32)"><g clip-path="url(#7f2f655a16)"><g clip-path="url(#1e0313804e)"><path fill="#fcfbfb" d="M 0.140625 0.175781 L 61.683594 0.175781 L 61.683594 62.199219 L 0.140625 62.199219 Z M 0.140625 0.175781 " fill-opacity="1" fill-rule="nonzero"/></g></g></g></g><g clip-path="url(#1e79cbd88a)"><path stroke-linecap="butt" transform="matrix(0.75, 0, 0, 0.75, 870.140236, 32.178909)" fill="none" stroke-linejoin="miter" d="M 0.000518186 0.0010381 L 82.047399 0.0010381 L 82.047399 82.740627 L 0.000518186 82.740627 Z M 0.000518186 0.0010381 " stroke="#d9d9d9" stroke-width="2" stroke-opacity="1" stroke-miterlimit="4"/></g><g clip-path="url(#597474400c)"><g transform="matrix(1, 0, 0, 1, 993, 32)"><g clip-path="url(#8e9f975cbb)"><g clip-path="url(#9886249e9d)"><path fill="#fcfbfb" d="M 0.226562 0.175781 L 61.773438 0.175781 L 61.773438 62.199219 L 0.226562 62.199219 Z M 0.226562 0.175781 " fill-opacity="1" fill-rule="nonzero"/></g></g></g></g><g clip-path="url(#267f7d240f)"><path stroke-linecap="butt" transform="matrix(0.75, 0, 0, 0.75, 993.227756, 32.178909)" fill="none" stroke-linejoin="miter" d="M -0.0015917 0.0010381 L 82.045289 0.0010381 L 82.045289 82.740627 L -0.0015917 82.740627 Z M -0.0015917 0.0010381 " stroke="#d9d9d9" stroke-width="2" stroke-opacity="1" stroke-miterlimit="4"/></g><g clip-path="url(#f8b5cb8e49)"><g transform="matrix(1, 0, 0, 1, 808, 218)"><g clip-path="url(#c905813431)"><g clip-path="url(#96ce712b73)"><path fill="#fcfbfb" d="M 0.597656 0.367188 L 62.140625 0.367188 L 62.140625 62.390625 L 0.597656 62.390625 Z M 0.597656 0.367188 " fill-opacity="1" fill-rule="nonzero"/></g></g></g></g><g clip-path="url(#534cac0a50)"><path stroke-linecap="butt" transform="matrix(0.75, 0, 0, 0.75, 808.596464, 218.37085)" fill="none" stroke-linejoin="miter" d="M 0.00158913 0.000325453 L 82.04847 0.000325453 L 82.04847 82.739914 L 0.00158913 82.739914 Z M 0.00158913 0.000325453 " stroke="#d9d9d9" stroke-width="2" stroke-opacity="1" stroke-miterlimit="4"/></g><g clip-path="url(#3b5954017f)"><g transform="matrix(1, 0, 0, 1, 870, 280)"><g clip-path="url(#7c74561872)"><g clip-path="url(#815bdf5e2c)"><path fill="#fcfbfb" d="M 0.140625 0.101562 L 61.683594 0.101562 L 61.683594 62.125 L 0.140625 62.125 Z M 0.140625 0.101562 " fill-opacity="1" fill-rule="nonzero"/></g></g></g></g><g clip-path="url(#424f338c5c)"><path stroke-linecap="butt" transform="matrix(0.75, 0, 0, 0.75, 870.140236, 280.105412)" fill="none" stroke-linejoin="miter" d="M 0.000518186 0.0000756581 L 82.047399 0.0000756581 L 82.047399 82.739664 L 0.000518186 82.739664 Z M 0.000518186 0.0000756581 " stroke="#d9d9d9" stroke-width="2" stroke-opacity="1" stroke-miterlimit="4"/></g><g clip-path="url(#f2d65963f4)"><g transform="matrix(1, 0, 0, 1, 931, 280)"><g clip-path="url(#f5e0c70ced)"><g clip-path="url(#95821bfb56)"><path fill="#fcfbfb" d="M 0.683594 0.101562 L 62.226562 0.101562 L 62.226562 62.125 L 0.683594 62.125 Z M 0.683594 0.101562 " fill-opacity="1" fill-rule="nonzero"/></g></g></g></g><g clip-path="url(#50cb40c291)"><path stroke-linecap="butt" transform="matrix(0.75, 0, 0, 0.75, 931.683984, 280.105412)" fill="none" stroke-linejoin="miter" d="M -0.000520759 0.0000756581 L 82.04636 0.0000756581 L 82.04636 82.739664 L -0.000520759 82.739664 Z M -0.000520759 0.0000756581 " stroke="#d9d9d9" stroke-width="2" stroke-opacity="1" stroke-miterlimit="4"/></g><g clip-path="url(#a1bc1cdde7)"><g transform="matrix(1, 0, 0, 1, 993, 280)"><g clip-path="url(#0de4deac38)"><g clip-path="url(#9bb15620a6)"><path fill="#fcfbfb" d="M 0.226562 0.101562 L 61.773438 0.101562 L 61.773438 62.125 L 0.226562 62.125 Z M 0.226562 0.101562 " fill-opacity="1" fill-rule="nonzero"/></g></g></g></g><g clip-path="url(#20c3bef160)"><path stroke-linecap="butt" transform="matrix(0.75, 0, 0, 0.75, 993.227756, 280.105412)" fill="none" stroke-linejoin="miter" d="M -0.0015917 0.0000756581 L 82.045289 0.0000756581 L 82.045289 82.739664 L -0.0015917 82.739664 Z M -0.0015917 0.0000756581 " stroke="#d9d9d9" stroke-width="2" stroke-opacity="1" stroke-miterlimit="4"/></g><g clip-path="url(#f1b4eeeba8)"><g transform="matrix(1, 0, 0, 1, 1054, 94)"><g clip-path="url(#9a7bf6a6a3)"><g clip-path="url(#062d0d72e3)"><path fill="#fcfbfb" d="M 0.769531 0.238281 L 62.316406 0.238281 L 62.316406 62.265625 L 0.769531 62.265625 Z M 0.769531 0.238281 " fill-opacity="1" fill-rule="nonzero"/></g></g></g></g><g clip-path="url(#e089ab1dd9)"><path stroke-linecap="butt" transform="matrix(0.75, 0, 0, 0.75, 1054.771456, 94.242884)" fill="none" stroke-linejoin="miter" d="M -0.00256665 -0.000928949 L 82.044314 -0.000928949 L 82.044314 82.73866 L -0.00256665 82.73866 Z M -0.00256665 -0.000928949 " stroke="#d9d9d9" stroke-width="2" stroke-opacity="1" stroke-miterlimit="4"/></g><g clip-path="url(#b9b81439fb)"><g transform="matrix(1, 0, 0, 1, 1054, 156)"><g clip-path="url(#fe0d685b04)"><g clip-path="url(#1095079d4b)"><path fill="#fcfbfb" d="M 0.769531 0.304688 L 62.316406 0.304688 L 62.316406 62.328125 L 0.769531 62.328125 Z M 0.769531 0.304688 " fill-opacity="1" fill-rule="nonzero"/></g></g></g></g><g clip-path="url(#5e55f69075)"><path stroke-linecap="butt" transform="matrix(0.75, 0, 0, 0.75, 1054.771456, 156.306875)" fill="none" stroke-linejoin="miter" d="M -0.00256665 0.00229122 L 82.044314 0.00229122 L 82.044314 82.74188 L -0.00256665 82.74188 Z M -0.00256665 0.00229122 " stroke="#d9d9d9" stroke-width="2" stroke-opacity="1" stroke-miterlimit="4"/></g><g clip-path="url(#6846bc7673)"><g transform="matrix(1, 0, 0, 1, 1054, 218)"><g clip-path="url(#cbda216332)"><g clip-path="url(#7a136304dc)"><path fill="#fcfbfb" d="M 0.769531 0.367188 L 62.316406 0.367188 L 62.316406 62.390625 L 0.769531 62.390625 Z M 0.769531 0.367188 " fill-opacity="1" fill-rule="nonzero"/></g></g></g></g><g clip-path="url(#861bd5cce0)"><path stroke-linecap="butt" transform="matrix(0.75, 0, 0, 0.75, 1054.771456, 218.37085)" fill="none" stroke-linejoin="miter" d="M -0.00256665 0.000325453 L 82.044314 0.000325453 L 82.044314 82.739914 L -0.00256665 82.739914 Z M -0.00256665 0.000325453 " stroke="#d9d9d9" stroke-width="2" stroke-opacity="1" stroke-miterlimit="4"/></g><g clip-path="url(#bcff2659f9)"><g transform="matrix(1, 0, 0, 1, 685, 32)"><g clip-path="url(#c8a2e5abe2)"><g clip-path="url(#bebb0472b2)"><path fill="#fcfbfb" d="M 0.550781 0.175781 L 62.097656 0.175781 L 62.097656 62.199219 L 0.550781 62.199219 Z M 0.550781 0.175781 " fill-opacity="1" fill-rule="nonzero"/></g></g></g></g><g clip-path="url(#ca041eb911)"><path stroke-linecap="butt" transform="matrix(0.75, 0, 0, 0.75, 685.552696, 32.178909)" fill="none" stroke-linejoin="miter" d="M -0.00255364 0.0010381 L 82.044327 0.0010381 L 82.044327 82.740627 L -0.00255364 82.740627 Z M -0.00255364 0.0010381 " stroke="#d9d9d9" stroke-width="2" stroke-opacity="1" stroke-miterlimit="4"/></g><g clip-path="url(#bd8c540f8a)"><g transform="matrix(1, 0, 0, 1, 685, 156)"><g clip-path="url(#8bbd38ac97)"><g clip-path="url(#bf52de6a6f)"><path fill="#fcfbfb" d="M 0.550781 0.304688 L 62.097656 0.304688 L 62.097656 62.328125 L 0.550781 62.328125 Z M 0.550781 0.304688 " fill-opacity="1" fill-rule="nonzero"/></g></g></g></g><g clip-path="url(#9cdf3bad8c)"><path stroke-linecap="butt" transform="matrix(0.75, 0, 0, 0.75, 685.552696, 156.306875)" fill="none" stroke-linejoin="miter" d="M -0.00255364 0.00229122 L 82.044327 0.00229122 L 82.044327 82.74188 L -0.00255364 82.74188 Z M -0.00255364 0.00229122 " stroke="#d9d9d9" stroke-width="2" stroke-opacity="1" stroke-miterlimit="4"/></g><g clip-path="url(#cae9f8c5b5)"><g transform="matrix(1, 0, 0, 1, 685, 280)"><g clip-path="url(#5ac22e7601)"><g clip-path="url(#f208cc8512)"><path fill="#fcfbfb" d="M 0.550781 0.429688 L 62.097656 0.429688 L 62.097656 62.457031 L 0.550781 62.457031 Z M 0.550781 0.429688 " fill-opacity="1" fill-rule="nonzero"/></g></g></g></g><g clip-path="url(#a35902c12c)"><path stroke-linecap="butt" transform="matrix(0.75, 0, 0, 0.75, 685.552696, 280.434826)" fill="none" stroke-linejoin="miter" d="M -0.00255364 -0.00164351 L 82.044327 -0.00164351 L 82.044327 82.737945 L -0.00255364 82.737945 Z M -0.00255364 -0.00164351 " stroke="#d9d9d9" stroke-width="2" stroke-opacity="1" stroke-miterlimit="4"/></g></svg>